[center][img]http://img40.imageshack.us/img40/2530/fastfiveo.jpg[/img]



[img]http://leetleech.org/images/48874973695367351744.png[/img]


Format                           : AVI
Format/Info                      : Audio Video Interleave
File size                        : 1.18 GiB
Duration                         : 1h 58mn
Overall bit rate                 : 1 427 Kbps
Writing library                  : VirtualDub build 32839/release

Video
ID                               : 0
Format                           : MPEG-4 Visual
Format profile                   : Advanced Simple@L5
Format settings, BVOP            : Yes
Format settings, QPel            : No
Format settings, GMC             : No warppoints
Format settings, Matrix          : Custom
Codec ID                         : XVID
Codec ID/Hint                    : XviD
Duration                         : 1h 58mn
Bit rate                         : 1 289 Kbps
Width                            : 640 pixels
Height                           : 384 pixels
Display aspect ratio             : 1.667
Frame rate                       : 23.976 fps
Color space                      : YUV
Chroma subsampling               : 4:2:0
Bit depth                        : 8 bits
Scan type                        : Progressive
Bits/(Pixel*Frame)               : 0.219
Stream size                      : 1.07 GiB (90%)
Writing library                  : XviD 1.2.1 (UTC 2008-12-04)

Audio
ID                               : 1
Format                           : MPEG Audio
Format version                   : Version 1
Format profile                   : Layer 3
Mode                             : Joint stereo
Mode extension                   : MS Stereo
Codec ID                         : 55
Codec ID/Hint                    : MP3
Duration                         : 1h 58mn
Bit rate mode                    : Constant
Bit rate                         : 128 Kbps
Channel(s)                       : 2 channels
Sampling rate                    : 44.1 KHz
Video delay                      : 16ms
Stream size                      : 109 MiB (9%)
Alignment                        : Split accross interleaves
Interleave, duration             : 42 ms (1.00 video frame)
Interleave, preload duration     : 500 ms




[url]http://www.imdb.com/title/tt1596343/[/url]




[IMG]http://leetleech.org/images/89524873606771859129.png[/IMG]


Users: 8.1/10 (2,764 votes) 35 reviews | Critics: 7 reviews

Dominic and his crew find themselves on the wrong side of the law once again as they try to switch lanes between a ruthless drug lord and a relentless federal agent.
Director:
Justin Lin
Writers:
Chris Morgan, Gary Scott Thompson (characters)
Stars:
Vin Diesel, Paul Walker and Dwayne Johnson




[img]http://leetleech.org/images/95521316153253938506.png[/img]



[img]http://img862.imageshack.us/img862/2082/vlcsnap2011042712h19m17.png[/img]
[img]http://img689.imageshack.us/img689/8474/vlcsnap2011042712h20m03.png[/img]
[img]http://img200.imageshack.us/img200/1849/vlcsnap2011042712h19m24.png[/img]



VIDEO:   IMAGiNE & Friend......Thanks   
AUDIO:   IMAGiNE .................Thanks

Video has flaws but these guys did a great job with what they had .Its basically 2 sources spliced together it does suffer from quite a bad crop but nothing could be done about that ...It also has an AR issue after awhile but i know what went into getting this the way it was so gotta credit them guys at IMAGiNE 

Filters used ,slight smoother ,slight saturation decrease levels filter ..Anyway sample included so dont moan later 

Enjoy !


Greetz to Imagine ,Flawl3ss,DiLLoN,BDK,NOiR,TOXiCiNK,THC,Ez,Rx,Boobyblue





[img]http://img411.imageshack.us/img411/6898/sig1n.jpg[/img]












[/center]